<svg xmlns="http://www.w3.org/2000/svg" viewBox="0 0 100 100" style="color: #22c55e">
    <g stroke-linejoin="round"><line x1="10" y1="95" x2="90" y2="95" stroke="#e2e8f0" stroke-width="4" stroke-linecap="round"/>
    <line x1="35" y1="60" x2="35" y2="80" stroke="#166534" stroke-width="10" stroke-linecap="round"/>
    <circle cx="35" cy="80" r="4.5" fill="#166534"/>
    <line x1="35" y1="80" x2="35" y2="95" stroke="#166534" stroke-width="8" stroke-linecap="round"/>
    <circle cx="35" cy="95" r="3.6" fill="#166534"/>
  
    <line x1="60" y1="60" x2="60" y2="75" stroke="#166534" stroke-width="8" stroke-linecap="round"/>
    <circle cx="60" cy="75" r="3.6" fill="#166534"/>
    <line x1="60" y1="75" x2="60" y2="95" stroke="#166534" stroke-width="6" stroke-linecap="round"/>
    <circle cx="60" cy="95" r="2.7" fill="#166534"/>
  <circle cx="75" cy="55" r="7" fill="#22c55e"/><path d="M65 60 L60 70 L30 70 L35 60 Z" fill="#22c55e"/>
    <line x1="30" y1="70" x2="30" y2="85" stroke="#22c55e" stroke-width="10" stroke-linecap="round"/>
    <circle cx="30" cy="85" r="4.5" fill="#22c55e"/>
    <line x1="30" y1="85" x2="30" y2="95" stroke="#22c55e" stroke-width="8" stroke-linecap="round"/>
    <circle cx="30" cy="95" r="3.6" fill="#22c55e"/>
  
    <line x1="60" y1="70" x2="65" y2="80" stroke="#22c55e" stroke-width="8" stroke-linecap="round"/>
    <circle cx="65" cy="80" r="3.6" fill="#22c55e"/>
    <line x1="65" y1="80" x2="65" y2="95" stroke="#22c55e" stroke-width="6" stroke-linecap="round"/>
    <circle cx="65" cy="95" r="2.7" fill="#22c55e"/>
  </g></svg>