<svg xmlns="http://www.w3.org/2000/svg" viewBox="0 0 100 100" style="color: #22c55e">
    <g stroke-linejoin="round"><line x1="10" y1="95" x2="90" y2="95" stroke="#e2e8f0" stroke-width="4" stroke-linecap="round"/>
    <line x1="35" y1="75" x2="20" y2="85" stroke="#166534" stroke-width="10" stroke-linecap="round"/>
    <circle cx="20" cy="85" r="4.5" fill="#166534"/>
    <line x1="20" y1="85" x2="10" y2="95" stroke="#166534" stroke-width="8" stroke-linecap="round"/>
    <circle cx="10" cy="95" r="3.6" fill="#166534"/>
  
    <line x1="65" y1="75" x2="70" y2="85" stroke="#166534" stroke-width="8" stroke-linecap="round"/>
    <circle cx="70" cy="85" r="3.6" fill="#166534"/>
    <line x1="70" y1="85" x2="70" y2="95" stroke="#166534" stroke-width="6" stroke-linecap="round"/>
    <circle cx="70" cy="95" r="2.7" fill="#166534"/>
  <circle cx="75" cy="65" r="7" fill="#22c55e"/><path d="M65 65 L65 75 L35 85 L35 75 Z" fill="#22c55e"/>
    <line x1="35" y1="85" x2="20" y2="90" stroke="#22c55e" stroke-width="10" stroke-linecap="round"/>
    <circle cx="20" cy="90" r="4.5" fill="#22c55e"/>
    <line x1="20" y1="90" x2="10" y2="95" stroke="#22c55e" stroke-width="8" stroke-linecap="round"/>
    <circle cx="10" cy="95" r="3.6" fill="#22c55e"/>
  
    <line x1="65" y1="65" x2="55" y2="60" stroke="#22c55e" stroke-width="8" stroke-linecap="round"/>
    <circle cx="55" cy="60" r="3.6" fill="#22c55e"/>
    <line x1="55" y1="60" x2="55" y2="50" stroke="#22c55e" stroke-width="6" stroke-linecap="round"/>
    <circle cx="55" cy="50" r="2.7" fill="#22c55e"/>
  </g></svg>