<svg xmlns="http://www.w3.org/2000/svg" viewBox="0 0 100 100" style="color: #22c55e">
    <g stroke-linejoin="round"><line x1="10" y1="95" x2="90" y2="95" stroke="#e2e8f0" stroke-width="4" stroke-linecap="round"/>
    <line x1="65" y1="75" x2="80" y2="85" stroke="#166534" stroke-width="10" stroke-linecap="round"/>
    <circle cx="80" cy="85" r="4.5" fill="#166534"/>
    <line x1="80" y1="85" x2="90" y2="95" stroke="#166534" stroke-width="8" stroke-linecap="round"/>
    <circle cx="90" cy="95" r="3.6" fill="#166534"/>
  
    <line x1="35" y1="75" x2="30" y2="85" stroke="#166534" stroke-width="8" stroke-linecap="round"/>
    <circle cx="30" cy="85" r="3.6" fill="#166534"/>
    <line x1="30" y1="85" x2="30" y2="95" stroke="#166534" stroke-width="6" stroke-linecap="round"/>
    <circle cx="30" cy="95" r="2.7" fill="#166534"/>
  <circle cx="25" cy="65" r="7" fill="#22c55e"/><path d="M35 65 L35 75 L65 85 L65 75 Z" fill="#22c55e"/>
    <line x1="65" y1="85" x2="80" y2="90" stroke="#22c55e" stroke-width="10" stroke-linecap="round"/>
    <circle cx="80" cy="90" r="4.5" fill="#22c55e"/>
    <line x1="80" y1="90" x2="90" y2="95" stroke="#22c55e" stroke-width="8" stroke-linecap="round"/>
    <circle cx="90" cy="95" r="3.6" fill="#22c55e"/>
  
    <line x1="35" y1="65" x2="45" y2="60" stroke="#22c55e" stroke-width="8" stroke-linecap="round"/>
    <circle cx="45" cy="60" r="3.6" fill="#22c55e"/>
    <line x1="45" y1="60" x2="45" y2="50" stroke="#22c55e" stroke-width="6" stroke-linecap="round"/>
    <circle cx="45" cy="50" r="2.7" fill="#22c55e"/>
  </g></svg>