<svg xmlns="http://www.w3.org/2000/svg" viewBox="0 0 100 100" style="color: #22c55e">
    <g stroke-linejoin="round"><line x1="30" y1="65" x2="45" y2="65" stroke="#94a3b8" fill="#94a3b8" stroke-width="4" stroke-linecap="round" stroke-linejoin="round"/> <line x1="30" y1="65" x2="30" y2="95" stroke="#94a3b8" fill="#94a3b8" stroke-width="4" stroke-linecap="round" stroke-linejoin="round"/> <line x1="45" y1="65" x2="45" y2="95" stroke="#94a3b8" fill="#94a3b8" stroke-width="4" stroke-linecap="round" stroke-linejoin="round"/><line x1="10" y1="95" x2="90" y2="95" stroke="#e2e8f0" stroke-width="4" stroke-linecap="round"/>
    <line x1="50" y1="70" x2="75" y2="75" stroke="#166534" stroke-width="10" stroke-linecap="round"/>
    <circle cx="75" cy="75" r="4.5" fill="#166534"/>
    <line x1="75" y1="75" x2="95" y2="95" stroke="#166534" stroke-width="8" stroke-linecap="round"/>
    <circle cx="95" cy="95" r="3.6" fill="#166534"/>
  
    <line x1="50" y1="40" x2="35" y2="40" stroke="#166534" stroke-width="8" stroke-linecap="round"/>
    <circle cx="35" cy="40" r="3.6" fill="#166534"/>
    <line x1="35" y1="40" x2="45" y2="65" stroke="#166534" stroke-width="6" stroke-linecap="round"/>
    <circle cx="45" cy="65" r="2.7" fill="#166534"/>
  <circle cx="55" cy="40" r="7" fill="#22c55e"/><path d="M50 40 L60 40 L60 70 L50 70 Z" fill="#22c55e"/>
    <line x1="60" y1="70" x2="85" y2="75" stroke="#22c55e" stroke-width="10" stroke-linecap="round"/>
    <circle cx="85" cy="75" r="4.5" fill="#22c55e"/>
    <line x1="85" y1="75" x2="95" y2="95" stroke="#22c55e" stroke-width="8" stroke-linecap="round"/>
    <circle cx="95" cy="95" r="3.6" fill="#22c55e"/>
  
    <line x1="60" y1="40" x2="40" y2="40" stroke="#22c55e" stroke-width="8" stroke-linecap="round"/>
    <circle cx="40" cy="40" r="3.6" fill="#22c55e"/>
    <line x1="40" y1="40" x2="45" y2="65" stroke="#22c55e" stroke-width="6" stroke-linecap="round"/>
    <circle cx="45" cy="65" r="2.7" fill="#22c55e"/>
  </g></svg>