<svg xmlns="http://www.w3.org/2000/svg" viewBox="0 0 100 100"><line x1="10" y1="85" x2="90" y2="85" stroke="#e2e8f0" stroke-width="4" stroke-linecap="round"/>
    <line x1="56" y1="75" x2="75" y2="60" stroke="#166534" stroke-width="10" stroke-linecap="round"/>
    <circle cx="75" cy="60" r="4.5" fill="#166534"/>
    <line x1="75" y1="60" x2="95" y2="65" stroke="#166534" stroke-width="8" stroke-linecap="round"/>
    <circle cx="95" cy="65" r="4" fill="#166534"/>
  
    <line x1="42" y1="50" x2="65" y2="60" stroke="#166534" stroke-width="8" stroke-linecap="round"/>
    <circle cx="65" cy="60" r="3.6" fill="#166534"/>
    <line x1="65" y1="60" x2="80" y2="55" stroke="#166534" stroke-width="6" stroke-linecap="round"/>
    <circle cx="80" cy="55" r="3" fill="#166534"/>
  <circle cx="35" cy="45" r="7" fill="#22c55e"/> <line x1="35" y1="45" x2="42" y2="52" stroke="#22c55e" stroke-width="6"/><path d="M38 48 L46 56 L60 78 L52 82 Z" fill="#22c55e" stroke="#22c55e" stroke-width="4" stroke-linejoin="round"/>
    <line x1="52" y1="82" x2="70" y2="65" stroke="#22c55e" stroke-width="10" stroke-linecap="round"/>
    <circle cx="70" cy="65" r="4.5" fill="#22c55e"/>
    <line x1="70" y1="65" x2="90" y2="70" stroke="#22c55e" stroke-width="8" stroke-linecap="round"/>
    <circle cx="90" cy="70" r="4" fill="#22c55e"/>
  
    <line x1="46" y1="56" x2="60" y2="65" stroke="#22c55e" stroke-width="8" stroke-linecap="round"/>
    <circle cx="60" cy="65" r="3.6" fill="#22c55e"/>
    <line x1="60" y1="65" x2="75" y2="60" stroke="#22c55e" stroke-width="6" stroke-linecap="round"/>
    <circle cx="75" cy="60" r="3" fill="#22c55e"/>
  <circle cx="78" cy="58" r="6" stroke="#94a3b8" fill="#94a3b8" stroke-width="4" stroke-linecap="round" stroke-linejoin="round"/></svg>