<svg xmlns="http://www.w3.org/2000/svg" viewBox="0 0 100 100" style="color: #ef4444">
    <g stroke-linejoin="round"><ellipse cx="50" cy="85" rx="30" ry="10" stroke="#94a3b8" fill="none" stroke-width="4"/> <line x1="40" y1="85" x2="30" y2="30" stroke="#94a3b8" fill="#94a3b8" stroke-width="4" stroke-linecap="round" stroke-linejoin="round"/> <line x1="60" y1="85" x2="70" y2="30" stroke="#94a3b8" fill="#94a3b8" stroke-width="4" stroke-linecap="round" stroke-linejoin="round"/>
    <line x1="45" y1="50" x2="60" y2="65" stroke="#991b1b" stroke-width="10" stroke-linecap="round"/>
    <circle cx="60" cy="65" r="4.5" fill="#991b1b"/>
    <line x1="60" y1="65" x2="80" y2="85" stroke="#991b1b" stroke-width="8" stroke-linecap="round"/>
    <circle cx="80" cy="85" r="3.6" fill="#991b1b"/>
  
    <line x1="45" y1="20" x2="65" y2="35" stroke="#991b1b" stroke-width="8" stroke-linecap="round"/>
    <circle cx="65" cy="35" r="3.6" fill="#991b1b"/>
    <line x1="65" y1="35" x2="70" y2="30" stroke="#991b1b" stroke-width="6" stroke-linecap="round"/>
    <circle cx="70" cy="30" r="2.7" fill="#991b1b"/>
  <circle cx="50" cy="20" r="7" fill="#ef4444"/><path d="M45 20 L55 20 L55 50 L45 50 Z" fill="#ef4444"/>
    <line x1="55" y1="50" x2="40" y2="65" stroke="#ef4444" stroke-width="10" stroke-linecap="round"/>
    <circle cx="40" cy="65" r="4.5" fill="#ef4444"/>
    <line x1="40" y1="65" x2="20" y2="85" stroke="#ef4444" stroke-width="8" stroke-linecap="round"/>
    <circle cx="20" cy="85" r="3.6" fill="#ef4444"/>
  
    <line x1="55" y1="20" x2="35" y2="35" stroke="#ef4444" stroke-width="8" stroke-linecap="round"/>
    <circle cx="35" cy="35" r="3.6" fill="#ef4444"/>
    <line x1="35" y1="35" x2="30" y2="30" stroke="#ef4444" stroke-width="6" stroke-linecap="round"/>
    <circle cx="30" cy="30" r="2.7" fill="#ef4444"/>
  </g></svg>