<svg xmlns="http://www.w3.org/2000/svg" viewBox="0 0 100 100" style="color: #ef4444">
    <g stroke-linejoin="round"><line x1="10" y1="95" x2="90" y2="95" stroke="#e2e8f0" stroke-width="4" stroke-linecap="round"/>
    <line x1="45" y1="40" x2="45" y2="55" stroke="#991b1b" stroke-width="10" stroke-linecap="round"/>
    <circle cx="45" cy="55" r="4.5" fill="#991b1b"/>
    <line x1="45" y1="55" x2="40" y2="75" stroke="#991b1b" stroke-width="8" stroke-linecap="round"/>
    <circle cx="40" cy="75" r="3.6" fill="#991b1b"/>
  
    <line x1="45" y1="15" x2="30" y2="30" stroke="#991b1b" stroke-width="8" stroke-linecap="round"/>
    <circle cx="30" cy="30" r="3.6" fill="#991b1b"/>
    <line x1="30" y1="30" x2="35" y2="45" stroke="#991b1b" stroke-width="6" stroke-linecap="round"/>
    <circle cx="35" cy="45" r="2.7" fill="#991b1b"/>
  <circle cx="50" cy="15" r="7" fill="#ef4444"/>
    <path d="M42 15 L58 15 L56 40 L44 40 Z" fill="#ef4444" stroke="#ef4444" stroke-width="4" stroke-linejoin="round"/>
  
    <line x1="55" y1="40" x2="55" y2="55" stroke="#ef4444" stroke-width="10" stroke-linecap="round"/>
    <circle cx="55" cy="55" r="4.5" fill="#ef4444"/>
    <line x1="55" y1="55" x2="60" y2="75" stroke="#ef4444" stroke-width="8" stroke-linecap="round"/>
    <circle cx="60" cy="75" r="3.6" fill="#ef4444"/>
  
    <line x1="55" y1="15" x2="70" y2="30" stroke="#ef4444" stroke-width="8" stroke-linecap="round"/>
    <circle cx="70" cy="30" r="3.6" fill="#ef4444"/>
    <line x1="70" y1="30" x2="65" y2="45" stroke="#ef4444" stroke-width="6" stroke-linecap="round"/>
    <circle cx="65" cy="45" r="2.7" fill="#ef4444"/>
  <path d="M35 45 Q50 95 65 45" fill="none" stroke="#94a3b8" stroke-width="2"/></g></svg>