<svg xmlns="http://www.w3.org/2000/svg" viewBox="0 0 100 100" style="color: #3b82f6">
    <g stroke-linejoin="round"><line x1="10" y1="90" x2="50" y2="90" stroke="#cbd5e1" stroke-width="8"/><line x1="10" y1="95" x2="90" y2="95" stroke="#e2e8f0" stroke-width="4" stroke-linecap="round"/>
    <line x1="55" y1="80" x2="65" y2="65" stroke="#1e40af" stroke-width="11" stroke-linecap="round"/>
    <circle cx="65" cy="65" r="4.95" fill="#1e40af"/>
    <line x1="65" y1="65" x2="70" y2="75" stroke="#1e40af" stroke-width="9" stroke-linecap="round"/>
    <circle cx="70" cy="75" r="4.05" fill="#1e40af"/>
  
    <line x1="30" y1="75" x2="40" y2="80" stroke="#1e40af" stroke-width="8" stroke-linecap="round"/>
    <circle cx="40" cy="80" r="3.6" fill="#1e40af"/>
    <line x1="40" y1="80" x2="45" y2="85" stroke="#1e40af" stroke-width="6" stroke-linecap="round"/>
    <circle cx="45" cy="85" r="2.7" fill="#1e40af"/>
  <circle cx="20" cy="70" r="7" fill="#3b82f6"/><path d="M25 70 L30 75 L60 85 L55 80 Z" fill="#3b82f6"/>
    <line x1="60" y1="85" x2="70" y2="70" stroke="#3b82f6" stroke-width="11" stroke-linecap="round"/>
    <circle cx="70" cy="70" r="4.95" fill="#3b82f6"/>
    <line x1="70" y1="70" x2="75" y2="80" stroke="#3b82f6" stroke-width="9" stroke-linecap="round"/>
    <circle cx="75" cy="80" r="4.05" fill="#3b82f6"/>
  
    <line x1="35" y1="75" x2="45" y2="80" stroke="#3b82f6" stroke-width="8" stroke-linecap="round"/>
    <circle cx="45" cy="80" r="3.6" fill="#3b82f6"/>
    <line x1="45" y1="80" x2="50" y2="85" stroke="#3b82f6" stroke-width="6" stroke-linecap="round"/>
    <circle cx="50" cy="85" r="2.7" fill="#3b82f6"/>
  <line x1="65" y1="65" x2="80" y2="85" stroke="#94a3b8" fill="#94a3b8" stroke-width="4" stroke-linecap="round" stroke-linejoin="round"/> <rect x="70" y="75" width="10" height="20" fill="#64748b"/></g></svg>