<svg xmlns="http://www.w3.org/2000/svg" viewBox="0 0 100 100" style="color: #3b82f6">
    <g stroke-linejoin="round"><line x1="10" y1="95" x2="90" y2="95" stroke="#e2e8f0" stroke-width="4" stroke-linecap="round"/>
    <line x1="45" y1="55" x2="45" y2="75" stroke="#1e40af" stroke-width="11" stroke-linecap="round"/>
    <circle cx="45" cy="75" r="4.95" fill="#1e40af"/>
    <line x1="45" y1="75" x2="45" y2="95" stroke="#1e40af" stroke-width="9" stroke-linecap="round"/>
    <circle cx="45" cy="95" r="4.05" fill="#1e40af"/>
  
    <line x1="65" y1="40" x2="55" y2="60" stroke="#1e40af" stroke-width="8" stroke-linecap="round"/>
    <circle cx="55" cy="60" r="3.6" fill="#1e40af"/>
    <line x1="55" y1="60" x2="50" y2="55" stroke="#1e40af" stroke-width="6" stroke-linecap="round"/>
    <circle cx="50" cy="55" r="2.7" fill="#1e40af"/>
  <circle cx="70" cy="30" r="7" fill="#3b82f6"/><path d="M65 40 L45 55 L45 65 L65 50 Z" fill="#3b82f6"/>
    <line x1="45" y1="65" x2="50" y2="80" stroke="#3b82f6" stroke-width="11" stroke-linecap="round"/>
    <circle cx="50" cy="80" r="4.95" fill="#3b82f6"/>
    <line x1="50" y1="80" x2="50" y2="95" stroke="#3b82f6" stroke-width="9" stroke-linecap="round"/>
    <circle cx="50" cy="95" r="4.05" fill="#3b82f6"/>
  
    <line x1="65" y1="50" x2="60" y2="70" stroke="#3b82f6" stroke-width="8" stroke-linecap="round"/>
    <circle cx="60" cy="70" r="3.6" fill="#3b82f6"/>
    <line x1="60" y1="70" x2="55" y2="65" stroke="#3b82f6" stroke-width="6" stroke-linecap="round"/>
    <circle cx="55" cy="65" r="2.7" fill="#3b82f6"/>
  <line x1="30" y1="60" x2="70" y2="60" stroke="#94a3b8" fill="#94a3b8" stroke-width="4" stroke-linecap="round" stroke-linejoin="round" stroke-width="5"/></g></svg>