<svg xmlns="http://www.w3.org/2000/svg" viewBox="0 0 100 100"><line x1="10" y1="85" x2="90" y2="85" stroke="#e2e8f0" stroke-width="4" stroke-linecap="round"/>
    <line x1="40" y1="65" x2="20" y2="75" stroke="#1e40af" stroke-width="10" stroke-linecap="round"/>
    <circle cx="20" cy="75" r="4.5" fill="#1e40af"/>
    <line x1="20" y1="75" x2="15" y2="85" stroke="#1e40af" stroke-width="8" stroke-linecap="round"/>
    <circle cx="15" cy="85" r="4" fill="#1e40af"/>
  
    <line x1="70" y1="55" x2="75" y2="70" stroke="#1e40af" stroke-width="8" stroke-linecap="round"/>
    <circle cx="75" cy="70" r="3.6" fill="#1e40af"/>
    <line x1="75" y1="70" x2="70" y2="85" stroke="#1e40af" stroke-width="6" stroke-linecap="round"/>
    <circle cx="70" cy="85" r="3" fill="#1e40af"/>
  <circle cx="85" cy="55" r="7" fill="#3b82f6"/> <line x1="85" y1="55" x2="75" y2="60" stroke="#3b82f6" stroke-width="6"/><path d="M75 55 L70 65 L35 75 L40 65 Z" fill="#3b82f6" stroke="#3b82f6" stroke-width="4" stroke-linejoin="round"/>
    <line x1="35" y1="75" x2="15" y2="80" stroke="#3b82f6" stroke-width="10" stroke-linecap="round"/>
    <circle cx="15" cy="80" r="4.5" fill="#3b82f6"/>
    <line x1="15" y1="80" x2="10" y2="85" stroke="#3b82f6" stroke-width="8" stroke-linecap="round"/>
    <circle cx="10" cy="85" r="4" fill="#3b82f6"/>
  
    <line x1="65" y1="65" x2="65" y2="75" stroke="#3b82f6" stroke-width="8" stroke-linecap="round"/>
    <circle cx="65" cy="75" r="3.6" fill="#3b82f6"/>
    <line x1="65" y1="75" x2="60" y2="85" stroke="#3b82f6" stroke-width="6" stroke-linecap="round"/>
    <circle cx="60" cy="85" r="3" fill="#3b82f6"/>
  </svg>